<?xml version="1.0" encoding="UTF-8" standalone="no"?>
<!-- IBoard SVG File -->

<svg
   viewBox="497.86 179.32 700 700"
   height="700"
   width="700"
   version="1.1"
   id="svg159"
   sodipodi:docname="principal quantum number fig.svg"
   inkscape:version="1.1 (c68e22c387, 2021-05-23)"
   xmlns:inkscape="http://www.inkscape.org/namespaces/inkscape"
   xmlns:sodipodi="http://sodipodi.sourceforge.net/DTD/sodipodi-0.dtd"
   xmlns="http://www.w3.org/2000/svg"
   xmlns:svg="http://www.w3.org/2000/svg">
  <sodipodi:namedview
     id="namedview161"
     pagecolor="#ffffff"
     bordercolor="#999999"
     borderopacity="1"
     inkscape:pageshadow="0"
     inkscape:pageopacity="0"
     inkscape:pagecheckerboard="0"
     showgrid="false"
     inkscape:lockguides="false"
     inkscape:zoom="0.66904325"
     inkscape:cx="153.20385"
     inkscape:cy="384.87796"
     inkscape:window-width="1366"
     inkscape:window-height="705"
     inkscape:window-x="-8"
     inkscape:window-y="-8"
     inkscape:window-maximized="1"
     inkscape:current-layer="svg159"
     height="719px"
     inkscape:snap-bbox="true"
     inkscape:bbox-paths="true"
     inkscape:bbox-nodes="true"
     inkscape:snap-bbox-edge-midpoints="true"
     inkscape:snap-bbox-midpoints="true"
     inkscape:snap-text-baseline="true" />
  <!-- SVG File -->
  <g
     id="ellipse2"
     transform="rotate(-90)"
     style="fill:none;stroke:#960000">
    <path
       style="color:#000000;fill:#960000;stroke:none;-inkscape-stroke:none"
       d="m -509.32031,570.82031 c -157.70301,0 -285.60547,127.90246 -285.60547,285.60547 -10e-6,157.70302 127.90245,285.60542 285.60547,285.60552 157.70301,0 285.60547,-127.9025 285.60547,-285.60552 0,-157.70301 -127.90246,-285.60547 -285.60547,-285.60547 z m 0,5.50977 c 154.72514,0 280.0957,125.37056 280.0957,280.0957 1e-5,154.72512 -125.37055,280.09572 -280.0957,280.09572 -154.72515,0 -280.09571,-125.3706 -280.09571,-280.09572 0,-154.72514 125.37056,-280.0957 280.09571,-280.0957 z"
       id="path9527" />
    <path
       style="color:#000000;fill:#960000;stroke:none;-inkscape-stroke:none"
       d="m -509.32031,570.32031 c -157.9732,0 -286.10547,128.13227 -286.10547,286.10547 -10e-6,157.97322 128.13226,286.10532 286.10547,286.10552 157.97319,0 286.10547,-128.1323 286.10547,-286.10552 0,-157.9732 -128.13228,-286.10547 -286.10547,-286.10547 z m 0,1 c 157.43251,0 285.10547,127.67296 285.10547,285.10547 0,157.43252 -127.67296,285.10552 -285.10547,285.10552 -157.43252,-1e-4 -285.10548,-127.673 -285.10547,-285.10552 0,-157.43251 127.67296,-285.10547 285.10547,-285.10547 z m 0,4.50977 c -154.99509,0 -280.59571,125.60062 -280.59571,280.5957 0,154.99502 125.60062,280.59572 280.59571,280.59572 154.99509,0 280.59571,-125.6007 280.5957,-280.59572 0,-154.99508 -125.60062,-280.5957 -280.5957,-280.5957 z m 0,1 c 154.45489,0 279.5957,125.14081 279.5957,279.5957 1e-5,154.45492 -125.1408,279.59572 -279.5957,279.59572 -154.4549,0 -279.59571,-125.1408 -279.59571,-279.59572 0,-154.45489 125.1408,-279.5957 279.59571,-279.5957 z"
       id="path9529" />
  </g>
  <g
     id="ellipse4"
     transform="rotate(-90)"
     style="fill:none;stroke:#1d631d">
    <path
       style="color:#000000;fill:#1d631d;stroke:none;-inkscape-stroke:none"
       d="m -510.05469,658.98047 c -111.04166,0 -201.11914,90.07748 -201.11914,201.11914 0,111.04166 90.07748,201.11719 201.11914,201.11719 111.04166,0 201.11719,-90.07553 201.11719,-201.11719 0,-111.04166 -90.07553,-201.11914 -201.11719,-201.11914 z m 0,5.50976 c 108.0638,0 195.60742,87.54558 195.60742,195.60938 0,108.06379 -87.54362,195.60739 -195.60742,195.60739 -108.06379,0 -195.60937,-87.5436 -195.60937,-195.60739 0,-108.0638 87.54558,-195.60938 195.60937,-195.60938 z"
       id="path9535" />
    <path
       style="color:#000000;fill:#1d631d;stroke:none;-inkscape-stroke:none"
       d="m -510.05469,658.48047 c -111.31195,0 -201.61914,90.30719 -201.61914,201.61914 0,111.31195 90.3072,201.61719 201.61914,201.61719 111.31195,0 201.61719,-90.30525 201.61719,-201.61719 0,-111.31194 -90.30524,-201.61914 -201.61719,-201.61914 z m 0,1 c 110.77115,0 200.61719,89.84799 200.61719,200.61914 0,110.77115 -89.84603,200.61719 -200.61719,200.61719 -110.77115,0 -200.61914,-89.84604 -200.61914,-200.61719 0,-110.77115 89.84799,-200.61914 200.61914,-200.61914 z m 0,4.50976 c -108.33372,0 -196.10937,87.77564 -196.10937,196.10938 0,108.33372 87.77565,196.10739 196.10937,196.10739 108.33373,0 196.10742,-87.77367 196.10742,-196.10739 0,-108.33373 -87.77368,-196.10938 -196.10742,-196.10938 z m 0,1 c 107.79365,0 195.10742,87.31572 195.10742,195.10938 0,107.79364 -87.31376,195.10739 -195.10742,195.10739 -107.79364,0 -195.10937,-87.31375 -195.10937,-195.10739 0,-107.79365 87.31573,-195.10938 195.10937,-195.10938 z"
       id="path9537" />
  </g>
  <g
     id="ellipse6"
     transform="rotate(-90)"
     style="fill:none;stroke:#a52967;stroke-opacity:1">
    <path
       style="color:#000000;fill:none;stroke-width:5.51008;-inkscape-stroke:none;stroke:#a52967;stroke-opacity:1"
       d="M -381.48695,860.09875 A 128.56859,128.56859 0 0 1 -510.05554,988.66734 128.56859,128.56859 0 0 1 -638.62413,860.09875 128.56859,128.56859 0 0 1 -510.05554,731.53017 128.56859,128.56859 0 0 1 -381.48695,860.09875 Z"
       id="path9543" />
    <path
       style="color:#000000;fill:none;-inkscape-stroke:none;stroke:#a52967;stroke-opacity:1"
       d="m -510.05469,728.77539 c -72.49533,0 -131.32421,58.82889 -131.32422,131.32422 0,72.49533 58.82889,131.32226 131.32422,131.32226 72.49534,10e-6 131.32227,-58.82693 131.32227,-131.32226 -1e-5,-72.49533 -58.82694,-131.32422 -131.32227,-131.32422 z m 0,5.50977 c 69.51747,0 125.8125,56.29699 125.8125,125.81445 0,69.51747 -56.29503,125.8125 -125.8125,125.8125 -69.51747,0 -125.81445,-56.29503 -125.81445,-125.8125 0,-69.51746 56.29699,-125.81445 125.81445,-125.81445 z"
       id="path9545" />
  </g>
  <g
     id="ellipse8"
     transform="rotate(-90)"
     style="fill:none;stroke:#50390f;stroke-opacity:1">
    <path
       style="color:#000000;fill:none;stroke-width:5.51008;-inkscape-stroke:none;stroke:#50390f;stroke-opacity:1"
       d="m -432.91439,860.09875 a 77.141151,77.141151 0 0 1 -77.14115,77.14116 77.141151,77.141151 0 0 1 -77.14115,-77.14116 77.141151,77.141151 0 0 1 77.14115,-77.14115 77.141151,77.141151 0 0 1 77.14115,77.14115 z"
       id="path9551" />
    <path
       style="color:#000000;fill:none;-inkscape-stroke:none;stroke:#50390f;stroke-opacity:1"
       d="m -510.05469,780.20312 c -44.09277,10e-6 -79.89648,35.80372 -79.89648,79.89649 -10e-6,44.09277 35.80371,79.89453 79.89648,79.89453 44.09278,0 79.89454,-35.80176 79.89453,-79.89453 0,-44.09277 -35.80176,-79.89648 -79.89453,-79.89649 z m 0,5.50977 c 41.11491,0 74.38477,33.27181 74.38477,74.38672 0,41.11491 -33.26986,74.38476 -74.38477,74.38476 -41.11491,0 -74.38672,-33.26985 -74.38672,-74.38476 0,-41.11491 33.27182,-74.38672 74.38672,-74.38672 z"
       id="path9553" />
  </g>
  <path
     style="color:#000000;fill:#080a30;stroke-width:3.67339;-inkscape-stroke:none"
     d="m 1012.4704,-247.95509 a 44.080658,44.080658 0 0 1 -44.08063,44.08065 44.080658,44.080658 0 0 1 -44.08066,-44.08065 44.080658,44.080658 0 0 1 44.08066,-44.08066 44.080658,44.080658 0 0 1 44.08063,44.08066 z"
     id="ellipse10"
     transform="rotate(44.99854)" />
  <g
     aria-label="Principal quantum number (n)"
     id="text68"
     style="font-size:32px;stroke-width:3.67339">
    <path
       style="color:#000000;fill:#000000;-inkscape-stroke:none"
       d="m 631.44122,842.01624 q 0,1.54687 -0.54687,2.875 -0.53125,1.3125 -1.5,2.28125 -1.20313,1.20312 -2.84375,1.8125 -1.64063,0.59375 -4.14063,0.59375 h -3.09375 v 8.67187 h -3.09375 v -23.26562 h 6.3125 q 2.09375,0 3.54688,0.35937 1.45312,0.34375 2.57812,1.09375 1.32813,0.89063 2.04688,2.21875 0.73437,1.32813 0.73437,3.35938 z m -3.21875,0.0781 q 0,-1.20312 -0.42187,-2.09375 -0.42188,-0.89062 -1.28125,-1.45312 -0.75,-0.48438 -1.71875,-0.6875 -0.95313,-0.21875 -2.42188,-0.21875 h -3.0625 v 9.29687 h 2.60938 q 1.875,0 3.04687,-0.32812 1.17188,-0.34375 1.90625,-1.07813 0.73438,-0.75 1.03125,-1.57812 0.3125,-0.82813 0.3125,-1.85938 z"
       id="path9401" />
    <path
       style="color:#000000;fill:#000000;-inkscape-stroke:none"
       d="m 646.1756,844.00061 h -0.15625 q -0.65625,-0.15625 -1.28125,-0.21875 -0.60938,-0.0781 -1.45313,-0.0781 -1.35937,0 -2.625,0.60937 -1.26562,0.59375 -2.4375,1.54688 v 12.39062 h -2.9375 v -17.45312 h 2.9375 v 2.57812 q 1.75,-1.40625 3.07813,-1.98437 1.34375,-0.59375 2.73437,-0.59375 0.76563,0 1.10938,0.0469 0.34375,0.0312 1.03125,0.14063 z"
       id="path9403" />
    <path
       style="color:#000000;fill:#000000;-inkscape-stroke:none"
       d="m 652.09747,837.87561 h -3.3125 v -3.04687 h 3.3125 z m -0.1875,20.375 h -2.9375 v -17.45312 h 2.9375 z"
       id="path9405" />
    <path
       style="color:#000000;fill:#000000;-inkscape-stroke:none"
       d="m 672.31622,858.25061 h -2.9375 v -9.9375 q 0,-1.20312 -0.14062,-2.25 -0.14063,-1.0625 -0.51563,-1.65625 -0.39062,-0.65625 -1.125,-0.96875 -0.73437,-0.32812 -1.90625,-0.32812 -1.20312,0 -2.51562,0.59375 -1.3125,0.59375 -2.51563,1.51562 v 13.03125 h -2.9375 v -17.45312 h 2.9375 v 1.9375 q 1.375,-1.14063 2.84375,-1.78125 1.46875,-0.64063 3.01563,-0.64063 2.82812,0 4.3125,1.70313 1.48437,1.70312 1.48437,4.90625 z"
       id="path9407" />
    <path
       style="color:#000000;fill:#000000;-inkscape-stroke:none"
       d="m 690.87872,857.15686 q -1.46875,0.70313 -2.79687,1.09375 -1.3125,0.39063 -2.79688,0.39063 -1.89062,0 -3.46875,-0.54688 -1.57812,-0.5625 -2.70312,-1.6875 -1.14063,-1.125 -1.76563,-2.84375 -0.625,-1.71875 -0.625,-4.01562 0,-4.28125 2.34375,-6.71875 2.35938,-2.4375 6.21875,-2.4375 1.5,0 2.9375,0.42187 1.45313,0.42188 2.65625,1.03125 v 3.26563 h -0.15625 q -1.34375,-1.04688 -2.78125,-1.60938 -1.42187,-0.5625 -2.78125,-0.5625 -2.5,0 -3.95312,1.6875 -1.4375,1.67188 -1.4375,4.92188 0,3.15625 1.40625,4.85937 1.42187,1.6875 3.98437,1.6875 0.89063,0 1.8125,-0.23437 0.92188,-0.23438 1.65625,-0.60938 0.64063,-0.32812 1.20313,-0.6875 0.5625,-0.375 0.89062,-0.64062 h 0.15625 z"
       id="path9409" />
    <path
       style="color:#000000;fill:#000000;-inkscape-stroke:none"
       d="m 697.8006,837.87561 h -3.3125 v -3.04687 h 3.3125 z m -0.1875,20.375 h -2.9375 v -17.45312 h 2.9375 z"
       id="path9411" />
    <path
       style="color:#000000;fill:#000000;-inkscape-stroke:none"
       d="m 718.78497,849.31311 q 0,2.125 -0.60937,3.89063 -0.60938,1.75 -1.71875,2.96875 -1.03125,1.15625 -2.4375,1.79687 -1.39063,0.625 -2.95313,0.625 -1.35937,0 -2.46875,-0.29687 -1.09375,-0.29688 -2.23437,-0.92188 v 7.3125 h -2.9375 v -23.89062 h 2.9375 v 1.82812 q 1.17187,-0.98437 2.625,-1.64062 1.46875,-0.67188 3.125,-0.67188 3.15625,0 4.90625,2.39063 1.76562,2.375 1.76562,6.60937 z m -3.03125,0.0781 q 0,-3.15625 -1.07812,-4.71875 -1.07813,-1.5625 -3.3125,-1.5625 -1.26563,0 -2.54688,0.54687 -1.28125,0.54688 -2.45312,1.4375 v 9.89063 q 1.25,0.5625 2.14062,0.76562 0.90625,0.20313 2.04688,0.20313 2.45312,0 3.82812,-1.65625 1.375,-1.65625 1.375,-4.90625 z"
       id="path9413" />
    <path
       style="color:#000000;fill:#000000;-inkscape-stroke:none"
       d="m 736.9256,858.25061 h -2.92188 v -1.85937 q -0.39062,0.26562 -1.0625,0.75 -0.65625,0.46875 -1.28125,0.75 -0.73437,0.35937 -1.6875,0.59375 -0.95312,0.25 -2.23437,0.25 -2.35938,0 -4,-1.5625 -1.64063,-1.5625 -1.64063,-3.98438 0,-1.98437 0.84375,-3.20312 0.85938,-1.23438 2.4375,-1.9375 1.59375,-0.70313 3.82813,-0.95313 2.23437,-0.25 4.79687,-0.375 v -0.45312 q 0,-1 -0.35937,-1.65625 -0.34375,-0.65625 -1,-1.03125 -0.625,-0.35938 -1.5,-0.48438 -0.875,-0.125 -1.82813,-0.125 -1.15625,0 -2.57812,0.3125 -1.42188,0.29688 -2.9375,0.875 h -0.15625 v -2.98437 q 0.85937,-0.23438 2.48437,-0.51563 1.625,-0.28125 3.20313,-0.28125 1.84375,0 3.20312,0.3125 1.375,0.29688 2.375,1.03125 0.98438,0.71875 1.5,1.85938 0.51563,1.14062 0.51563,2.82812 z m -2.92188,-4.29687 v -4.85938 q -1.34375,0.0781 -3.17187,0.23438 -1.8125,0.15625 -2.875,0.45312 -1.26563,0.35938 -2.04688,1.125 -0.78125,0.75 -0.78125,2.07813 0,1.5 0.90625,2.26562 0.90625,0.75 2.76563,0.75 1.54687,0 2.82812,-0.59375 1.28125,-0.60937 2.375,-1.45312 z"
       id="path9415" />
    <path
       style="color:#000000;fill:#000000;-inkscape-stroke:none"
       d="m 745.5506,858.25061 h -2.9375 v -24.3125 h 2.9375 z"
       id="path9417" />
    <path
       style="color:#000000;fill:#000000;-inkscape-stroke:none"
       d="m 776.76935,864.68811 h -2.9375 v -8.40625 q -1.35938,1.17188 -2.70313,1.75 -1.34375,0.5625 -2.90625,0.5625 -3.10937,0 -4.96875,-2.39062 -1.84375,-2.40625 -1.84375,-6.625 0,-2.25 0.64063,-3.96875 0.65625,-1.73438 1.71875,-2.90625 1.03125,-1.14063 2.42187,-1.76563 1.39063,-0.625 2.9375,-0.625 1.40625,0 2.48438,0.3125 1.09375,0.3125 2.21875,0.92188 l 0.1875,-0.75 h 2.75 z m -2.9375,-10.875 v -9.875 q -1.21875,-0.54687 -2.15625,-0.76562 -0.9375,-0.21875 -2.03125,-0.21875 -2.54688,0 -3.875,1.73437 -1.32813,1.71875 -1.32813,4.75 0,3.0625 1.0625,4.71875 1.07813,1.64063 3.375,1.64063 1.28125,0 2.5625,-0.54688 1.28125,-0.5625 2.39063,-1.4375 z"
       id="path9419" />
    <path
       style="color:#000000;fill:#000000;-inkscape-stroke:none"
       d="m 797.01935,858.25061 h -2.9375 v -1.9375 q -1.48438,1.17188 -2.84375,1.79688 -1.35938,0.625 -3,0.625 -2.75,0 -4.28125,-1.67188 -1.53125,-1.6875 -1.53125,-4.9375 v -11.32812 h 2.9375 v 9.9375 q 0,1.32812 0.125,2.28125 0.125,0.9375 0.53125,1.60937 0.42187,0.6875 1.09375,1 0.67187,0.3125 1.95312,0.3125 1.14063,0 2.48438,-0.59375 1.35937,-0.59375 2.53125,-1.51562 v -13.03125 h 2.9375 z"
       id="path9421" />
    <path
       style="color:#000000;fill:#000000;-inkscape-stroke:none"
       d="m 816.3631,858.25061 h -2.92188 v -1.85937 q -0.39062,0.26562 -1.0625,0.75 -0.65625,0.46875 -1.28125,0.75 -0.73437,0.35937 -1.6875,0.59375 -0.95312,0.25 -2.23437,0.25 -2.35938,0 -4,-1.5625 -1.64063,-1.5625 -1.64063,-3.98438 0,-1.98437 0.84375,-3.20312 0.85938,-1.23438 2.4375,-1.9375 1.59375,-0.70313 3.82813,-0.95313 2.23437,-0.25 4.79687,-0.375 v -0.45312 q 0,-1 -0.35937,-1.65625 -0.34375,-0.65625 -1,-1.03125 -0.625,-0.35938 -1.5,-0.48438 -0.875,-0.125 -1.82813,-0.125 -1.15625,0 -2.57812,0.3125 -1.42188,0.29688 -2.9375,0.875 h -0.15625 v -2.98437 q 0.85937,-0.23438 2.48437,-0.51563 1.625,-0.28125 3.20313,-0.28125 1.84375,0 3.20312,0.3125 1.375,0.29688 2.375,1.03125 0.98438,0.71875 1.5,1.85938 0.51563,1.14062 0.51563,2.82812 z m -2.92188,-4.29687 v -4.85938 q -1.34375,0.0781 -3.17187,0.23438 -1.8125,0.15625 -2.875,0.45312 -1.26563,0.35938 -2.04688,1.125 -0.78125,0.75 -0.78125,2.07813 0,1.5 0.90625,2.26562 0.90625,0.75 2.76563,0.75 1.54687,0 2.82812,-0.59375 1.28125,-0.60937 2.375,-1.45312 z"
       id="path9423" />
    <path
       style="color:#000000;fill:#000000;-inkscape-stroke:none"
       d="m 836.6131,858.25061 h -2.9375 v -9.9375 q 0,-1.20312 -0.14063,-2.25 -0.14062,-1.0625 -0.51562,-1.65625 -0.39063,-0.65625 -1.125,-0.96875 -0.73438,-0.32812 -1.90625,-0.32812 -1.20313,0 -2.51563,0.59375 -1.3125,0.59375 -2.51562,1.51562 v 13.03125 h -2.9375 v -17.45312 h 2.9375 v 1.9375 q 1.375,-1.14063 2.84375,-1.78125 1.46875,-0.64063 3.01562,-0.64063 2.82813,0 4.3125,1.70313 1.48438,1.70312 1.48438,4.90625 z"
       id="path9425" />
    <path
       style="color:#000000;fill:#000000;-inkscape-stroke:none"
       d="m 851.33185,858.09436 q -0.82813,0.21875 -1.8125,0.35938 -0.96875,0.14062 -1.73438,0.14062 -2.67187,0 -4.0625,-1.4375 -1.39062,-1.4375 -1.39062,-4.60937 v -9.28125 h -1.98438 v -2.46875 h 1.98438 v -5.01563 h 2.9375 v 5.01563 h 6.0625 v 2.46875 h -6.0625 v 7.95312 q 0,1.375 0.0625,2.15625 0.0625,0.76563 0.4375,1.4375 0.34375,0.625 0.9375,0.92188 0.60937,0.28125 1.84375,0.28125 0.71875,0 1.5,-0.20313 0.78125,-0.21875 1.125,-0.35937 h 0.15625 z"
       id="path9427" />
    <path
       style="color:#000000;fill:#000000;-inkscape-stroke:none"
       d="m 869.34747,858.25061 h -2.9375 v -1.9375 q -1.48437,1.17188 -2.84375,1.79688 -1.35937,0.625 -3,0.625 -2.75,0 -4.28125,-1.67188 -1.53125,-1.6875 -1.53125,-4.9375 v -11.32812 h 2.9375 v 9.9375 q 0,1.32812 0.125,2.28125 0.125,0.9375 0.53125,1.60937 0.42188,0.6875 1.09375,1 0.67188,0.3125 1.95313,0.3125 1.14062,0 2.48437,-0.59375 1.35938,-0.59375 2.53125,-1.51562 v -13.03125 h 2.9375 z"
       id="path9429" />
    <path
       style="color:#000000;fill:#000000;-inkscape-stroke:none"
       d="m 900.59747,858.25061 h -2.9375 v -9.9375 q 0,-1.125 -0.10937,-2.17187 -0.0937,-1.04688 -0.42188,-1.67188 -0.35937,-0.67187 -1.03125,-1.01562 -0.67187,-0.34375 -1.9375,-0.34375 -1.23437,0 -2.46875,0.625 -1.23437,0.60937 -2.46875,1.5625 0.0469,0.35937 0.0781,0.84375 0.0312,0.46875 0.0312,0.9375 v 11.17187 h -2.9375 v -9.9375 q 0,-1.15625 -0.10938,-2.1875 -0.0937,-1.04687 -0.42187,-1.67187 -0.35938,-0.67188 -1.03125,-1 -0.67188,-0.34375 -1.9375,-0.34375 -1.20313,0 -2.42188,0.59375 -1.20312,0.59375 -2.40625,1.51562 v 13.03125 h -2.9375 v -17.45312 h 2.9375 v 1.9375 q 1.375,-1.14063 2.73438,-1.78125 1.375,-0.64063 2.92187,-0.64063 1.78125,0 3.01563,0.75 1.25,0.75 1.85937,2.07813 1.78125,-1.5 3.25,-2.15625 1.46875,-0.67188 3.14063,-0.67188 2.875,0 4.23437,1.75 1.375,1.73438 1.375,4.85938 z"
       id="path9431" />
    <path
       style="color:#000000;fill:#000000;-inkscape-stroke:none"
       d="m 932.09747,858.25061 h -2.9375 v -9.9375 q 0,-1.20312 -0.14062,-2.25 -0.14063,-1.0625 -0.51563,-1.65625 -0.39062,-0.65625 -1.125,-0.96875 -0.73437,-0.32812 -1.90625,-0.32812 -1.20312,0 -2.51562,0.59375 -1.3125,0.59375 -2.51563,1.51562 v 13.03125 h -2.9375 v -17.45312 h 2.9375 v 1.9375 q 1.375,-1.14063 2.84375,-1.78125 1.46875,-0.64063 3.01563,-0.64063 2.82812,0 4.3125,1.70313 1.48437,1.70312 1.48437,4.90625 z"
       id="path9433" />
    <path
       style="color:#000000;fill:#000000;-inkscape-stroke:none"
       d="m 952.22247,858.25061 h -2.9375 v -1.9375 q -1.48437,1.17188 -2.84375,1.79688 -1.35937,0.625 -3,0.625 -2.75,0 -4.28125,-1.67188 -1.53125,-1.6875 -1.53125,-4.9375 v -11.32812 h 2.9375 v 9.9375 q 0,1.32812 0.125,2.28125 0.125,0.9375 0.53125,1.60937 0.42188,0.6875 1.09375,1 0.67188,0.3125 1.95313,0.3125 1.14062,0 2.48437,-0.59375 1.35938,-0.59375 2.53125,-1.51562 v -13.03125 h 2.9375 z"
       id="path9435" />
    <path
       style="color:#000000;fill:#000000;-inkscape-stroke:none"
       d="m 983.47247,858.25061 h -2.9375 v -9.9375 q 0,-1.125 -0.10937,-2.17187 -0.0937,-1.04688 -0.42188,-1.67188 -0.35937,-0.67187 -1.03125,-1.01562 -0.67187,-0.34375 -1.9375,-0.34375 -1.23437,0 -2.46875,0.625 -1.23437,0.60937 -2.46875,1.5625 0.0469,0.35937 0.0781,0.84375 0.0312,0.46875 0.0312,0.9375 v 11.17187 h -2.9375 v -9.9375 q 0,-1.15625 -0.10938,-2.1875 -0.0937,-1.04687 -0.42187,-1.67187 -0.35938,-0.67188 -1.03125,-1 -0.67188,-0.34375 -1.9375,-0.34375 -1.20313,0 -2.42188,0.59375 -1.20312,0.59375 -2.40625,1.51562 v 13.03125 h -2.9375 v -17.45312 h 2.9375 v 1.9375 q 1.375,-1.14063 2.73438,-1.78125 1.375,-0.64063 2.92187,-0.64063 1.78125,0 3.01563,0.75 1.25,0.75 1.85937,2.07813 1.78125,-1.5 3.25,-2.15625 1.46875,-0.67188 3.14063,-0.67188 2.875,0 4.23437,1.75 1.375,1.73438 1.375,4.85938 z"
       id="path9437" />
    <path
       style="color:#000000;fill:#000000;-inkscape-stroke:none"
       d="m 1004.4881,849.39124 q 0,2.1875 -0.625,3.9375 -0.6094,1.75 -1.6563,2.9375 -1.1093,1.23437 -2.43745,1.85937 -1.32813,0.60938 -2.92188,0.60938 -1.48437,0 -2.59375,-0.35938 -1.10937,-0.34375 -2.1875,-0.9375 l -0.1875,0.8125 h -2.75 v -24.3125 h 2.9375 v 8.6875 q 1.23438,-1.01562 2.625,-1.65625 1.39063,-0.65625 3.125,-0.65625 3.09378,0 4.87498,2.375 1.7969,2.375 1.7969,6.70313 z m -3.0313,0.0781 q 0,-3.125 -1.0312,-4.73437 -1.03125,-1.625 -3.32813,-1.625 -1.28125,0 -2.59375,0.5625 -1.3125,0.54687 -2.4375,1.42187 v 10 q 1.25,0.5625 2.14063,0.78125 0.90625,0.21875 2.04687,0.21875 2.4375,0 3.81248,-1.59375 1.3906,-1.60937 1.3906,-5.03125 z"
       id="path9439" />
    <path
       style="color:#000000;fill:#000000;-inkscape-stroke:none"
       d="m 1023.6756,849.82874 h -12.8594 q 0,1.60937 0.4844,2.8125 0.4844,1.1875 1.3281,1.95312 0.8125,0.75 1.9219,1.125 1.125,0.375 2.4687,0.375 1.7813,0 3.5782,-0.70312 1.8125,-0.71875 2.5781,-1.40625 h 0.1562 v 3.20312 q -1.4843,0.625 -3.0312,1.04688 -1.5469,0.42187 -3.25,0.42187 -4.3438,0 -6.7813,-2.34375 -2.4375,-2.35937 -2.4375,-6.6875 0,-4.28125 2.3282,-6.79687 2.3437,-2.51563 6.1562,-2.51563 3.5313,0 5.4375,2.0625 1.9219,2.0625 1.9219,5.85938 z m -2.8594,-2.25 q -0.016,-2.3125 -1.1719,-3.57813 -1.1406,-1.26562 -3.4843,-1.26562 -2.3594,0 -3.7657,1.39062 -1.3906,1.39063 -1.5781,3.45313 z"
       id="path9441" />
    <path
       style="color:#000000;fill:#000000;-inkscape-stroke:none"
       d="m 1039.0193,844.00061 h -0.1562 q -0.6563,-0.15625 -1.2813,-0.21875 -0.6093,-0.0781 -1.4531,-0.0781 -1.3594,0 -2.625,0.60937 -1.2656,0.59375 -2.4375,1.54688 v 12.39062 h -2.9375 v -17.45312 h 2.9375 v 2.57812 q 1.75,-1.40625 3.0781,-1.98437 1.3438,-0.59375 2.7344,-0.59375 0.7656,0 1.1094,0.0469 0.3437,0.0312 1.0312,0.14063 z"
       id="path9443" />
    <path
       style="color:#000000;fill:#000000;-inkscape-stroke:none"
       d="m 1062.3787,864.68811 h -3.5781 q -2.7656,-3.17187 -4.2969,-6.92187 -1.5312,-3.75 -1.5312,-8.45313 0,-4.70312 1.5312,-8.45312 1.5313,-3.75 4.2969,-6.92188 h 3.5781 v 0.15625 q -1.2656,1.14063 -2.4219,2.64063 -1.1406,1.48437 -2.125,3.46875 -0.9375,1.92187 -1.5312,4.23437 -0.5781,2.3125 -0.5781,4.875 0,2.67188 0.5625,4.89063 0.5781,2.21875 1.5468,4.21875 0.9375,1.92187 2.1407,3.46875 1.2031,1.5625 2.4062,2.64062 z"
       id="path9445" />
    <path
       style="color:#000000;fill:#000000;-inkscape-stroke:none"
       d="m 1082.16,858.25061 h -2.9375 v -9.9375 q 0,-1.20312 -0.1407,-2.25 -0.1406,-1.0625 -0.5156,-1.65625 -0.3906,-0.65625 -1.125,-0.96875 -0.7344,-0.32812 -1.9062,-0.32812 -1.2032,0 -2.5157,0.59375 -1.3125,0.59375 -2.5156,1.51562 v 13.03125 h -2.9375 v -17.45312 h 2.9375 v 1.9375 q 1.375,-1.14063 2.8438,-1.78125 1.4687,-0.64063 3.0156,-0.64063 2.8281,0 4.3125,1.70313 1.4844,1.70312 1.4844,4.90625 z"
       id="path9447" />
    <path
       style="color:#000000;fill:#000000;-inkscape-stroke:none"
       d="m 1096.6287,849.31311 q 0,4.70313 -1.5312,8.45313 -1.5313,3.75 -4.2969,6.92187 h -3.5781 v -0.15625 q 1.2031,-1.07812 2.4062,-2.64062 1.2188,-1.54688 2.1406,-3.46875 0.9688,-2 1.5313,-4.21875 0.5781,-2.21875 0.5781,-4.89063 0,-2.5625 -0.5781,-4.875 -0.5781,-2.3125 -1.5313,-4.23437 -0.9843,-1.98438 -2.1406,-3.46875 -1.1406,-1.5 -2.4062,-2.64063 v -0.15625 h 3.5781 q 2.7656,3.17188 4.2969,6.92188 1.5312,3.75 1.5312,8.45312 z"
       id="path9449" />
  </g>
  <g
     aria-label="K"
     id="text72"
     style="font-size:44.0807px;fill:#50390f;stroke-width:3.67339">
    <path
       style="color:#000000;stroke-width:13.4938;-inkscape-stroke:none"
       d="m 945.12744,526.49396 v -34.18329 h 6.90194 v 15.17962 l 13.9438,-15.17962 h 9.28031 l -12.87119,13.31423 13.57072,20.86906 h -8.93056 l -9.39691,-16.04236 -5.59617,5.71276 v 10.3296 z"
       id="path9452" />
  </g>
  <g
     aria-label="L"
     id="text76"
     style="font-size:44.0807px;stroke-width:3.67339">
    <path
       style="color:#000000;fill:#a52967;stroke-width:13.4938;-inkscape-stroke:none"
       d="m 1006.0594,526.35406 v -33.90347 h 6.902 v 28.14408 h 17.1616 v 5.75939 z"
       id="path9455" />
  </g>
  <g
     aria-label="M"
     id="text80"
     style="font-size:44.0807px;stroke-width:3.67339;fill:#1d631d">
    <path
       style="color:#000000;stroke-width:13.4938;-inkscape-stroke:none"
       d="m 1073.3042,526.49396 v -34.18329 h 10.3296 l 6.2025,23.31739 6.1324,-23.31739 h 10.353 v 34.18329 h -6.4123 V 499.5857 l -6.7854,26.90826 h -6.6454 l -6.7621,-26.90826 v 26.90826 z"
       id="path9458" />
  </g>
  <g
     aria-label="N"
     id="text84"
     style="font-size:44.0807px;stroke-width:3.67339;fill:#960000">
    <path
       style="color:#000000;stroke-width:13.4938;-inkscape-stroke:none"
       d="m 1154.955,526.49396 v -34.18329 h 6.7154 l 13.9904,22.82772 v -22.82772 h 6.4123 v 34.18329 h -6.9252 l -13.7806,-22.29142 v 22.29142 z"
       id="path9461" />
  </g>
  <g
     id="line86">
    <path
       style="color:#000000;fill:#000000;stroke-width:4.37129;-inkscape-stroke:none"
       d="M 778.66412,510.48492 H 540.35162"
       id="path9739" />
    <path
       style="color:#000000;fill:#000000;-inkscape-stroke:none"
       d="m 540.35156,508.29883 v 4.37109 h 238.3125 v -4.37109 z"
       id="path9741" />
  </g>
  <g
     aria-label="Energy"
     transform="rotate(-91.015918)"
     id="text102"
     style="font-size:44.0807px;stroke-width:3.67339">
    <path
       style="color:#000000;-inkscape-font-specification:sans-serif;fill:#000000;stroke-width:13.4938;-inkscape-stroke:none"
       d="m -476.29234,539.19867 h -17.59568 v -26.70741 h 17.59568 v 3.15682 h -14.04425 v 7.31808 h 14.04425 v 3.15682 h -14.04425 v 9.91887 h 14.04425 z"
       id="path9465" />
    <path
       style="color:#000000;-inkscape-font-specification:sans-serif;fill:#000000;stroke-width:13.4938;-inkscape-stroke:none"
       d="m -454.17666,539.19867 h -3.37206 v -11.4076 q 0,-1.38111 -0.16143,-2.58285 -0.16143,-1.21968 -0.5919,-1.90127 -0.44841,-0.75333 -1.29143,-1.11206 -0.84301,-0.37666 -2.18825,-0.37666 -1.38111,0 -2.88777,0.68158 -1.50666,0.68159 -2.88777,1.73984 v 14.95902 h -3.37206 v -20.03504 h 3.37206 v 2.22412 q 1.57841,-1.30936 3.26444,-2.04476 1.68602,-0.73539 3.46173,-0.73539 3.24651,0 4.95047,1.95507 1.70397,1.95508 1.70397,5.63206 z"
       id="path9467" />
    <path
       style="color:#000000;-inkscape-font-specification:sans-serif;fill:#000000;stroke-width:13.4938;-inkscape-stroke:none"
       d="m -430.91306,529.53091 h -14.76171 q 0,1.84746 0.55603,3.22857 0.55603,1.36317 1.5246,2.24205 0.93269,0.86096 2.20618,1.29143 1.29143,0.43048 2.83397,0.43048 2.04475,0 4.10745,-0.80715 2.08063,-0.82507 2.95952,-1.61428 h 0.17936 v 3.67698 q -1.70396,0.71746 -3.47968,1.20174 -1.77571,0.48429 -3.73078,0.48429 -4.98634,0 -7.78443,-2.69047 -2.79809,-2.70841 -2.79809,-7.67681 0,-4.9146 2.67253,-7.80237 2.69047,-2.88777 7.06697,-2.88777 4.05365,0 6.2419,2.36761 2.20618,2.36762 2.20618,6.72618 z m -3.28237,-2.58285 q -0.0179,-2.6546 -1.34524,-4.10745 -1.30936,-1.45286 -3.99983,-1.45286 -2.70841,0 -4.32269,1.59635 -1.59635,1.59634 -1.81158,3.96396 z"
       id="path9469" />
    <path
       style="color:#000000;-inkscape-font-specification:sans-serif;fill:#000000;stroke-width:13.4938;-inkscape-stroke:none"
       d="m -413.29944,522.84061 h -0.17936 q -0.75333,-0.17937 -1.47079,-0.25112 -0.69953,-0.0897 -1.6681,-0.0897 -1.56047,0 -3.01332,0.69952 -1.45286,0.68159 -2.79809,1.77572 v 14.22362 h -3.37206 v -20.03504 h 3.37206 v 2.95952 q 2.00888,-1.61429 3.53348,-2.27794 1.54254,-0.68158 3.13889,-0.68158 0.87888,0 1.27348,0.0538 0.39461,0.0359 1.18381,0.16143 z"
       id="path9471" />
    <path
       style="color:#000000;-inkscape-font-specification:sans-serif;fill:#000000;stroke-width:13.4938;-inkscape-stroke:none"
       d="m -393.87424,536.92074 q 0,5.09396 -2.3138,7.47951 -2.31381,2.38555 -7.12078,2.38555 -1.59635,0 -3.12095,-0.23318 -1.50666,-0.21523 -2.97746,-0.62777 v -3.44381 h 0.17937 q 0.82508,0.32286 2.61872,0.78921 1.79365,0.48428 3.5873,0.48428 1.7219,0 2.8519,-0.41254 1.13,-0.41253 1.75777,-1.14793 0.62778,-0.69952 0.89683,-1.68603 0.26904,-0.9865 0.26904,-2.20618 v -1.82952 q -1.5246,1.21968 -2.92364,1.82952 -1.38111,0.5919 -3.53349,0.5919 -3.58729,0 -5.7038,-2.58285 -2.09856,-2.60079 -2.09856,-7.31808 0,-2.58286 0.71746,-4.44825 0.73539,-1.88333 1.99094,-3.2465 1.16588,-1.27349 2.83397,-1.97301 1.66809,-0.71746 3.31825,-0.71746 1.73983,0 2.9057,0.35873 1.18381,0.34079 2.49317,1.05825 l 0.21524,-0.86095 h 3.15682 z m -3.37206,-3.22857 v -10.92331 q -1.34523,-0.60984 -2.5111,-0.86095 -1.14794,-0.26905 -2.29587,-0.26905 -2.78015,0 -4.3765,1.86539 -1.59635,1.8654 -1.59635,5.41682 0,3.37206 1.18381,5.1119 1.18381,1.73983 3.92809,1.73983 1.47079,0 2.94158,-0.55603 1.48873,-0.57396 2.72634,-1.5246 z"
       id="path9473" />
    <path
       style="color:#000000;-inkscape-font-specification:sans-serif;fill:#000000;stroke-width:13.4938;-inkscape-stroke:none"
       d="m -369.91111,519.16363 -11.69458,27.42487 h -3.60523 l 3.73078,-8.3584 -7.98173,-19.06647 h 3.65904 l 6.15221,14.8514 6.20602,-14.8514 z"
       id="path9475" />
  </g>
  <defs
     id="defs157">
    <radialGradient
       id="gradient1"
       cx="600.59961"
       cy="272.16324"
       r="12"
       fx="600.59961"
       fy="272.16324"
       gradientUnits="userSpaceOnUse"
       gradientTransform="translate(16.542828,-504.38706)">
      <stop
         style="stop-color:rgb(255,255,255);stop-opacity:1.000000"
         offset="0%"
         id="stop152" />
      <stop
         style="stop-color:rgb(47,47,202);stop-opacity:1.000000"
         offset="100%"
         id="stop154" />
    </radialGradient>
  </defs>
  <g
     aria-label="n = 1"
     id="text16262"
     style="font-size:30.8436px;-inkscape-font-specification:'sans-serif, Normal';fill:#50390f;stroke-width:2.09998">
    <path
       style="color:#000000;-inkscape-font-specification:'sans-serif, Normal';-inkscape-stroke:none"
       d="m 834.70831,421.56952 h -2.83135 v -9.57838 q 0,-1.15965 -0.13554,-2.16869 -0.13555,-1.02411 -0.49699,-1.5964 -0.37651,-0.63254 -1.08435,-0.93374 -0.70784,-0.31627 -1.83736,-0.31627 -1.15965,0 -2.42472,0.57229 -1.26507,0.5723 -2.42472,1.46086 v 12.56033 h -2.83134 v -16.82241 h 2.83134 v 1.86748 q 1.32532,-1.09941 2.74099,-1.71688 1.41567,-0.61747 2.90665,-0.61747 2.72592,0 4.15665,1.64157 1.43074,1.64158 1.43074,4.72895 z"
       id="path9478" />
    <path
       style="color:#000000;-inkscape-font-specification:'sans-serif, Normal';-inkscape-stroke:none"
       d="m 869.7688,409.79232 h -17.86157 v -2.40965 h 17.86157 z m 0,6.32535 h -17.86157 v -2.40965 h 17.86157 z"
       id="path9480" />
    <path
       style="color:#000000;-inkscape-font-specification:'sans-serif, Normal';-inkscape-stroke:none"
       d="m 900.62746,421.56952 h -12.13864 v -2.28917 h 4.66871 v -15.03023 h -4.66871 v -2.04821 q 0.9488,0 2.03315,-0.15061 1.08434,-0.16566 1.64157,-0.46687 0.69278,-0.37651 1.08435,-0.9488 0.40663,-0.58735 0.46687,-1.56628 h 2.33435 v 20.211 h 4.57835 z"
       id="path9482" />
  </g>
  <g
     aria-label="n = 2"
     id="text16478"
     style="font-size:30.8436px;-inkscape-font-specification:'sans-serif, Normal';fill:#a52967;stroke-width:2.09998">
    <path
       style="color:#000000;-inkscape-font-specification:'sans-serif, Normal';-inkscape-stroke:none"
       d="m 834.06823,368.87692 h -2.83134 v -9.57838 q 0,-1.15965 -0.13555,-2.16869 -0.13554,-1.02411 -0.49699,-1.5964 -0.37651,-0.63253 -1.08434,-0.93374 -0.70784,-0.31627 -1.83737,-0.31627 -1.15964,0 -2.42471,0.5723 -1.26507,0.57229 -2.42472,1.46085 v 12.56033 h -2.83135 v -16.82241 h 2.83135 v 1.86748 q 1.32531,-1.0994 2.74098,-1.71688 1.41568,-0.61747 2.90665,-0.61747 2.72592,0 4.15666,1.64158 1.43073,1.64158 1.43073,4.72895 z"
       id="path9485" />
    <path
       style="color:#000000;-inkscape-font-specification:'sans-serif, Normal';-inkscape-stroke:none"
       d="m 869.12873,357.09973 h -17.86158 v -2.40966 h 17.86158 z m 0,6.32535 h -17.86158 v -2.40966 h 17.86158 z"
       id="path9487" />
    <path
       style="color:#000000;-inkscape-font-specification:'sans-serif, Normal';-inkscape-stroke:none"
       d="m 901.26752,368.87692 h -15.18084 v -3.14761 q 1.58134,-1.35543 3.16267,-2.71086 1.5964,-1.35544 2.96689,-2.69581 2.89159,-2.80122 3.96088,-4.4428 1.06928,-1.65664 1.06928,-3.5693 0,-1.747 -1.15965,-2.72593 -1.14458,-0.99398 -3.20785,-0.99398 -1.37049,0 -2.96689,0.48193 -1.5964,0.48193 -3.11749,1.47592 h -0.15061 v -3.16268 q 1.06929,-0.52711 2.84641,-0.96386 1.79218,-0.43675 3.46388,-0.43675 3.44882,0 5.40667,1.6717 1.95784,1.65664 1.95784,4.50304 0,1.28013 -0.33132,2.3946 -0.31627,1.0994 -0.94881,2.09339 -0.58735,0.93374 -1.38555,1.83736 -0.78314,0.90362 -1.91266,2.00303 -1.61146,1.58133 -3.32834,3.07231 -1.71688,1.47591 -3.20786,2.74098 h 12.06335 z"
       id="path9489" />
  </g>
  <g
     aria-label="n = 3"
     id="text16482"
     style="font-size:30.8436px;-inkscape-font-specification:'sans-serif, Normal';fill:#1d631d;stroke-width:2.09998">
    <path
       style="color:#000000;-inkscape-font-specification:'sans-serif, Normal';-inkscape-stroke:none"
       d="m 834.22637,296.63242 h -2.83134 v -9.57839 q 0,-1.15964 -0.13555,-2.16869 -0.13554,-1.0241 -0.49699,-1.5964 -0.37651,-0.63253 -1.08434,-0.93374 -0.70784,-0.31626 -1.83737,-0.31626 -1.15964,0 -2.42471,0.57229 -1.26507,0.57229 -2.42472,1.46085 v 12.56034 h -2.83134 V 279.81 h 2.83134 v 1.86749 q 1.32531,-1.09941 2.74099,-1.71688 1.41567,-0.61748 2.90664,-0.61748 2.72593,0 4.15666,1.64158 1.43073,1.64158 1.43073,4.72895 z"
       id="path9492" />
    <path
       style="color:#000000;-inkscape-font-specification:'sans-serif, Normal';-inkscape-stroke:none"
       d="m 869.28687,284.85522 h -17.86158 v -2.40966 h 17.86158 z m 0,6.32535 h -17.86158 v -2.40966 h 17.86158 z"
       id="path9494" />
    <path
       style="color:#000000;-inkscape-font-specification:'sans-serif, Normal';-inkscape-stroke:none"
       d="m 899.45275,285.83414 q 0.7229,0.6476 1.18977,1.62652 0.46687,0.97892 0.46687,2.53014 0,1.53616 -0.55723,2.81629 -0.55724,1.28013 -1.56628,2.22893 -1.12953,1.05422 -2.66568,1.56628 -1.5211,0.49699 -3.3434,0.49699 -1.86748,0 -3.67473,-0.45181 -1.80724,-0.43675 -2.96688,-0.96387 V 292.536 h 0.2259 q 1.28013,0.84338 3.01207,1.40061 1.73194,0.55724 3.3434,0.55724 0.9488,0 2.01809,-0.31627 1.06928,-0.31627 1.73194,-0.93374 0.69277,-0.66266 1.0241,-1.46086 0.34639,-0.7982 0.34639,-2.01808 0,-1.20483 -0.39157,-1.98797 -0.37651,-0.7982 -1.05423,-1.25001 -0.67771,-0.46687 -1.64157,-0.63253 -0.96387,-0.18073 -2.07833,-0.18073 h -1.35543 v -2.50002 h 1.05422 q 2.28917,0 3.64461,-0.9488 1.37049,-0.96386 1.37049,-2.80122 0,-0.81326 -0.34639,-1.41568 -0.34639,-0.61747 -0.96386,-1.00904 -0.6476,-0.39157 -1.38556,-0.54217 -0.73795,-0.15061 -1.67169,-0.15061 -1.43074,0 -3.0422,0.51205 -1.61145,0.51206 -3.04219,1.4458 h -0.1506 v -3.14762 q 1.06929,-0.52711 2.84641,-0.96386 1.79218,-0.45181 3.46388,-0.45181 1.64158,0 2.89158,0.30121 1.25001,0.30121 2.25906,0.96386 1.08434,0.7229 1.64158,1.747 0.55723,1.02411 0.55723,2.3946 0,1.86748 -1.32531,3.26809 -1.31025,1.38556 -3.10243,1.747 v 0.21085 q 0.72289,0.12048 1.65663,0.51205 0.93375,0.37651 1.58134,0.9488 z"
       id="path9496" />
  </g>
  <g
     aria-label="n = 4"
     id="text16486"
     style="font-size:30.8436px;-inkscape-font-specification:'sans-serif, Normal';fill:#960000;stroke-width:2.09998">
    <path
       style="color:#000000;-inkscape-font-specification:'sans-serif, Normal';-inkscape-stroke:none"
       d="m 833.81225,210.85468 h -2.83135 v -9.57839 q 0,-1.15965 -0.13554,-2.16869 -0.13554,-1.0241 -0.49699,-1.5964 -0.37651,-0.63253 -1.08435,-0.93374 -0.70783,-0.31627 -1.83736,-0.31627 -1.15965,0 -2.42472,0.5723 -1.26507,0.57229 -2.42471,1.46085 v 12.56034 h -2.83135 v -16.82242 h 2.83135 v 1.86749 q 1.32531,-1.09941 2.74098,-1.71688 1.41567,-0.61748 2.90665,-0.61748 2.72592,0 4.15666,1.64158 1.43073,1.64158 1.43073,4.72895 z"
       id="path9499" />
    <path
       style="color:#000000;-inkscape-font-specification:'sans-serif, Normal';-inkscape-stroke:none"
       d="m 868.87275,199.07748 h -17.86158 v -2.40966 h 17.86158 z m 0,6.32535 h -17.86158 v -2.40966 h 17.86158 z"
       id="path9501" />
    <path
       style="color:#000000;-inkscape-font-specification:'sans-serif, Normal';-inkscape-stroke:none"
       d="m 901.52359,204.54439 h -3.32834 v 6.31029 h -2.89159 v -6.31029 h -10.73803 v -3.46388 l 10.85851,-12.6507 h 2.77111 v 13.70492 h 3.32834 z m -6.21993,-2.40966 v -10.12055 l -8.68982,10.12055 z"
       id="path9503" />
  </g>
  <path
     style="color:#000000;fill:#000000;stroke-width:3;-inkscape-stroke:none"
     d="M 33.160002,296.062 32.653951,322.64437 32.147902,349.22674 9.3799206,335.4973 -13.388062,321.76787 9.8859703,308.91494 Z"
     id="path1155"
     transform="matrix(0.88307888,-0.00899181,0.01875973,0.42327254,509.31856,374.16901)" />
  <path
     style="color:#000000;fill:#000000;-inkscape-stroke:none"
     d="m 613.09766,867.5 v 1.5 h 485.62114 v -1.5 z"
     id="path9280" />
</svg>
